<svg width="949" height="576" viewBox="0 0 949 576" fill="none" xmlns="http://www.w3.org/2000/svg">
<g filter="url(#filter0_d)">
<rect x="48" y="24" width="853" height="480" rx="10" fill="#FAFAFA"/>
</g>
<mask id="mask0" mask-type="alpha" maskUnits="userSpaceOnUse" x="48" y="24" width="853" height="480">
<rect x="48" y="24" width="853" height="480" rx="10" fill="#FAFAFA"/>
<rect x="48" y="24" width="853" height="480" rx="10" stroke="black"/>
</mask>
<g mask="url(#mask0)">
<rect x="757" y="469" width="100" height="16" fill="#C4C4C4"/>
<rect x="48" y="102" width="212" height="402" fill="#C4C4C4"/>
<circle cx="369.5" cy="256.5" r="28.975" stroke="white" stroke-width="3.05"/>
<path d="M384.958 251.93C388.797 254.316 388.797 259.904 384.958 262.29L366.926 273.502C362.863 276.029 357.605 273.107 357.605 268.322V245.898C357.605 241.113 362.863 238.191 366.926 240.718L384.958 251.93Z" fill="white"/>
<path d="M866.314 482.627L871.971 476.971L866.314 471.314" stroke="#C4C4C4" stroke-width="5" stroke-linecap="round" stroke-linejoin="round"/>
<rect x="48" y="24" width="853" height="78" fill="#212121"/>
<rect x="278" y="122" width="336" height="27" fill="#555555"/>
<rect x="278" y="160" width="246" height="4" fill="#C4C4C4"/>
<rect x="278" y="175" width="178" height="4" fill="#C4C4C4"/>
<rect x="502" y="238" width="301" height="15" fill="#C4C4C4"/>
<rect x="479" y="264" width="324" height="15" fill="#C4C4C4"/>
<rect x="479" y="290" width="324" height="15" fill="#C4C4C4"/>
<rect x="372" y="316" width="431" height="15" fill="#C4C4C4"/>
<rect x="372" y="342" width="431" height="15" fill="#C4C4C4"/>
<rect x="372" y="367" width="269" height="15" fill="#C4C4C4"/>
<rect x="278" y="205" width="183" height="103" fill="#AAAAAA"/>
</g>
<path d="M87.5588 77.636C95.0803 77.636 101.178 71.4849 101.178 63.8972C101.178 56.3095 95.0803 50.1585 87.5588 50.1585C80.0373 50.1585 73.9399 56.3095 73.9399 63.8972C73.9399 71.4849 80.0373 77.636 87.5588 77.636Z" fill="#FFDD00"/>
<path d="M80.05 52.9565C77.7842 53.2717 75.8062 54.2401 74.2485 55.807C72.508 57.5566 71.4436 59.8133 71.0873 62.5267C71.0142 63.0886 71.0142 64.9341 71.0873 65.496C71.2792 66.9624 71.672 68.2552 72.2887 69.4703C73.8556 72.563 76.6787 74.5775 80.0637 75.0206C80.7535 75.1075 82.0371 75.1075 82.7087 75.0206C84.6821 74.7603 86.4956 73.8969 87.9209 72.531C88.1585 72.3072 88.364 72.1199 88.3823 72.1199C88.396 72.1199 88.4097 72.6544 88.4097 73.3076V74.4953H95.5817V53.4818H88.3183V55.4598L88.1859 55.3502C88.1128 55.2908 87.9118 55.1218 87.7428 54.9756C86.5139 53.9295 84.8374 53.2214 83.0148 52.9793C82.2016 52.8696 80.7489 52.8605 80.05 52.9565ZM84.8511 59.2057C85.9109 59.4844 86.7743 60.0325 87.423 60.8411C88.9213 62.7186 88.83 65.6696 87.222 67.4284C85.4952 69.3196 82.1011 69.4292 80.187 67.6613C79.5201 67.0401 79.0724 66.2224 78.8075 65.1306C78.7709 64.9661 78.7481 64.5824 78.7481 64.0114C78.7481 63.2759 78.7664 63.0841 78.8486 62.7552C79.2825 61.0558 80.484 59.7721 82.1103 59.2788C82.695 59.1006 83.0513 59.055 83.7502 59.0732C84.271 59.0869 84.5085 59.1143 84.8511 59.2057ZM93.6266 65.8935C93.9372 66.0305 94.2615 66.3594 94.4077 66.6746C94.5585 67.0035 94.5493 67.5791 94.3894 67.9217C93.9646 68.8262 92.7997 69.114 92.0323 68.5065C91.6348 68.1867 91.3836 67.602 91.4476 67.1269C91.5846 66.0625 92.649 65.4641 93.6266 65.8935ZM93.252 69.6531C94.0148 69.7992 94.5311 70.3429 94.5311 71.0007C94.5265 71.6722 93.9829 72.4214 92.987 73.1249C92.754 73.2893 92.5485 73.4264 92.5302 73.4309C92.5119 73.4401 92.4982 73.2254 92.4982 72.9513C92.4936 72.5173 92.4799 72.4305 92.3703 72.1975C92.1921 71.8092 91.9272 71.5169 91.443 71.1788C90.9907 70.8636 90.8491 70.7083 90.8034 70.4799C90.7349 70.1464 91.3927 69.8038 92.3383 69.6759C92.8956 69.5983 92.9642 69.5983 93.252 69.6531Z" fill="black"/>
<defs>
<filter id="filter0_d" x="0" y="0" width="949" height="576" filterUnits="userSpaceOnUse" color-interpolation-filters="sRGB">
<feFlood flood-opacity="0" result="BackgroundImageFix"/>
<feColorMatrix in="SourceAlpha" type="matrix" values="0 0 0 0 0 0 0 0 0 0 0 0 0 0 0 0 0 0 127 0"/>
<feOffset dy="24"/>
<feGaussianBlur stdDeviation="24"/>
<feColorMatrix type="matrix" values="0 0 0 0 0 0 0 0 0 0 0 0 0 0 0 0 0 0 0.35 0"/>
<feBlend mode="normal" in2="BackgroundImageFix" result="effect1_dropShadow"/>
<feBlend mode="normal" in="SourceGraphic" in2="effect1_dropShadow" result="shape"/>
</filter>
</defs>
</svg>
