<svg width="1920" height="1080" viewBox="0 0 1920 1080" fill="none" xmlns="http://www.w3.org/2000/svg">
<rect width="1920" height="1080" fill="#022133"/>
<path d="M1022.42 0H1920V1080H1022.42C1176.17 523 848.5 626 1022.42 0Z" fill="url(#paint0_linear)"/>
<path d="M1022.42 0H1920V1080H1357.5C1511.25 523 848.5 626 1022.42 0Z" fill="url(#paint1_linear)"/>
<path d="M1277.5 0H1920V1080H1357.5C1511.25 523 1103.58 626 1277.5 0Z" fill="url(#paint2_linear)"/>
<path d="M1277.5 0H1920V1080H1467.5C1621.25 523 1215.5 826 1277.5 0Z" fill="url(#paint3_linear)"/>
<path d="M1442 0H1920V1080H1467.5C1621.25 523 1268.08 626 1442 0Z" fill="url(#paint4_linear)"/>
<defs>
<linearGradient id="paint0_linear" x1="970" y1="7.53467e-06" x2="1920" y2="1080" gradientUnits="userSpaceOnUse">
<stop stop-color="#FFB200"/>
<stop offset="1" stop-color="#E50053"/>
</linearGradient>
<linearGradient id="paint1_linear" x1="970" y1="2.04561e-05" x2="1920" y2="1080" gradientUnits="userSpaceOnUse">
<stop offset="0.333333" stop-color="#FFB200"/>
<stop offset="0.848958" stop-color="#E50053"/>
</linearGradient>
<linearGradient id="paint2_linear" x1="970" y1="4.47294e-05" x2="1920" y2="1080" gradientUnits="userSpaceOnUse">
<stop offset="0.15625" stop-color="#FFB200"/>
<stop offset="0.848958" stop-color="#E50053"/>
</linearGradient>
<linearGradient id="paint3_linear" x1="970" y1="5.30872e-05" x2="1920" y2="1080" gradientUnits="userSpaceOnUse">
<stop offset="0.203125" stop-color="#FFB200"/>
<stop offset="1" stop-color="#E50053"/>
</linearGradient>
<linearGradient id="paint4_linear" x1="970" y1="2.06901e-05" x2="1920" y2="1080" gradientUnits="userSpaceOnUse">
<stop stop-color="#E50053"/>
<stop offset="1" stop-color="#FFB200"/>
</linearGradient>
</defs>
</svg>
