<svg width="1080" height="1080" viewBox="0 0 1080 1080" fill="none" xmlns="http://www.w3.org/2000/svg">
<path d="M774.66 310.051L774.069 309.704L772.704 309.288C773.254 309.751 773.941 310.02 774.66 310.051Z" fill="#0D0C22"/>
<path d="M783.258 371.49L782.599 371.675L783.258 371.49Z" fill="#0D0C22"/>
<path d="M774.912 309.956C774.828 309.945 774.746 309.926 774.666 309.898C774.661 309.952 774.661 310.007 774.666 310.062C774.756 310.049 774.842 310.013 774.912 309.956Z" fill="#0D0C22"/>
<path d="M774.663 310.058H774.75V310.003L774.663 310.058Z" fill="#0D0C22"/>
<path d="M782.73 371.379L783.725 370.812L784.096 370.604L784.431 370.245C783.8 370.517 783.224 370.902 782.73 371.379Z" fill="#0D0C22"/>
<path d="M776.381 311.394L775.409 310.468L774.75 310.109C775.104 310.735 775.69 311.196 776.381 311.394Z" fill="#0D0C22"/>
<path d="M531.863 907.586C531.087 907.922 530.406 908.447 529.884 909.113L530.498 908.723C530.915 908.339 531.504 907.889 531.863 907.586Z" fill="#0D0C22"/>
<path d="M673.852 879.648C673.852 878.774 673.425 878.935 673.528 882.055C673.528 881.806 673.633 881.551 673.679 881.309C673.737 880.751 673.783 880.206 673.852 879.648Z" fill="#0D0C22"/>
<path d="M659.125 907.586C658.348 907.922 657.669 908.447 657.147 909.113L657.76 908.723C658.176 908.339 658.767 907.889 659.125 907.586Z" fill="#0D0C22"/>
<path d="M431.868 914.23C431.278 913.719 430.556 913.382 429.785 913.255C430.41 913.557 431.034 913.86 431.451 914.088L431.868 914.23Z" fill="#0D0C22"/>
<path d="M409.367 892.679C409.275 891.771 408.995 890.891 408.545 890.09C408.864 890.917 409.13 891.771 409.344 892.632L409.367 892.679Z" fill="#0D0C22"/>
<path d="M560.51 507.278C529.62 520.502 494.563 535.495 449.129 535.495C430.123 535.458 411.209 532.85 392.901 527.744L424.325 850.365C425.437 863.847 431.58 876.42 441.533 885.585C451.487 894.75 464.523 899.833 478.053 899.833C478.053 899.833 522.608 902.146 537.475 902.146C553.476 902.146 601.455 899.833 601.455 899.833C614.983 899.833 628.016 894.743 637.968 885.579C647.919 876.414 654.06 863.847 655.173 850.365L688.828 493.856C673.788 488.72 658.609 485.307 641.497 485.307C611.902 485.295 588.057 495.488 560.51 507.278Z" fill="#212121"/>
<path d="M295.629 369.635L296.161 370.132L296.508 370.341C296.241 370.075 295.946 369.838 295.629 369.635Z" fill="#0D0C22"/>
<path d="M834.139 339.859L829.407 315.991C825.161 294.576 815.524 274.34 793.542 266.6C786.495 264.124 778.501 263.06 773.098 257.934C767.695 252.809 766.098 244.85 764.849 237.468C762.535 223.92 760.36 210.36 757.988 196.836C755.94 185.208 754.32 172.146 748.987 161.479C742.045 147.156 727.641 138.779 713.318 133.237C705.978 130.498 698.489 128.18 690.884 126.296C655.099 116.855 617.475 113.384 580.661 111.406C536.473 108.967 492.168 109.702 448.084 113.604C415.273 116.589 380.715 120.199 349.535 131.548C338.139 135.702 326.396 140.688 317.731 149.493C307.098 160.31 303.627 177.04 311.39 190.53C316.909 200.11 326.257 206.878 336.172 211.355C349.087 217.125 362.575 221.515 376.411 224.452C414.938 232.968 454.841 236.311 494.201 237.734C537.826 239.495 581.521 238.068 624.938 233.465C635.674 232.284 646.392 230.869 657.09 229.219C669.689 227.287 677.776 210.811 674.062 199.334C669.619 185.613 657.679 180.291 644.178 182.362C642.188 182.674 640.21 182.963 638.219 183.252L636.785 183.461C632.211 184.04 627.637 184.579 623.064 185.081C613.615 186.099 604.144 186.932 594.649 187.58C573.383 189.061 552.061 189.743 530.75 189.778C509.809 189.778 488.856 189.188 467.961 187.811C458.428 187.187 448.918 186.392 439.431 185.428C435.115 184.977 430.811 184.502 426.508 183.97L422.412 183.45L421.521 183.322L417.275 182.709C408.598 181.401 399.921 179.898 391.336 178.081C390.47 177.889 389.695 177.407 389.139 176.715C388.584 176.023 388.281 175.162 388.281 174.275C388.281 173.387 388.584 172.527 389.139 171.835C389.695 171.143 390.47 170.661 391.336 170.468H391.498C398.938 168.883 406.434 167.53 413.954 166.35C416.462 165.956 418.976 165.571 421.498 165.193H421.567C426.276 164.88 431.008 164.036 435.694 163.48C476.461 159.24 517.471 157.794 558.436 159.153C578.323 159.732 598.2 160.9 617.996 162.913C622.253 163.353 626.488 163.816 630.722 164.336C632.342 164.533 633.973 164.765 635.605 164.961L638.89 165.436C648.47 166.863 657.999 168.594 667.479 170.63C681.525 173.685 699.562 174.68 705.809 190.067C707.799 194.95 708.702 200.376 709.8 205.501L711.2 212.038C711.237 212.155 711.264 212.275 711.282 212.396C714.59 227.822 717.903 243.249 721.22 258.675C721.463 259.815 721.468 260.992 721.236 262.134C721.004 263.276 720.54 264.357 719.871 265.312C719.202 266.266 718.344 267.072 717.35 267.68C716.356 268.288 715.247 268.684 714.093 268.845H714L711.975 269.123L709.974 269.388C703.634 270.214 697.286 270.985 690.931 271.703C678.412 273.129 665.874 274.363 653.318 275.405C628.366 277.479 603.364 278.841 578.312 279.489C565.547 279.828 552.786 279.986 540.028 279.963C489.249 279.923 438.514 276.971 388.074 271.124C382.612 270.476 377.152 269.781 371.691 269.076C375.925 269.62 368.613 268.659 367.132 268.451C363.661 267.965 360.191 267.46 356.72 266.936C345.069 265.188 333.488 263.037 321.86 261.151C307.804 258.837 294.36 259.994 281.645 266.936C271.208 272.647 262.76 281.405 257.43 292.042C251.946 303.38 250.314 315.725 247.861 327.908C245.409 340.09 241.591 353.199 243.037 365.705C246.149 392.697 265.019 414.633 292.161 419.539C317.696 424.166 343.368 427.915 369.111 431.108C470.233 443.493 572.392 444.974 673.831 435.528C682.091 434.757 690.34 433.916 698.578 433.006C701.151 432.723 703.755 433.019 706.198 433.873C708.642 434.727 710.863 436.117 712.7 437.94C714.537 439.764 715.943 441.975 716.814 444.412C717.686 446.85 718.002 449.451 717.737 452.026L715.169 476.993C709.993 527.444 704.818 577.892 699.642 628.335C694.244 681.309 688.809 734.278 683.341 787.24C681.798 802.161 680.256 817.075 678.713 831.982C677.232 846.667 677.024 861.809 674.236 876.32C669.839 899.134 654.394 913.147 631.856 918.271C611.208 922.971 590.115 925.438 568.941 925.627C545.466 925.754 522.003 924.712 498.529 924.84C473.468 924.981 442.775 922.668 423.43 904.016C406.434 887.636 404.085 861.984 401.772 839.802C398.687 810.438 395.629 781.08 392.597 751.725L375.59 588.489L364.587 482.871C364.402 481.124 364.217 479.4 364.043 477.641C362.724 465.042 353.804 452.709 339.747 453.345C327.715 453.877 314.04 464.105 315.451 477.641L323.607 555.944L340.476 717.919C345.281 763.927 350.075 809.94 354.857 855.966C355.783 864.781 356.65 873.623 357.622 882.439C362.91 930.616 399.701 956.577 445.262 963.886C471.872 968.169 499.13 969.05 526.133 969.487C560.75 970.045 595.713 971.377 629.762 965.103C680.217 955.844 718.073 922.157 723.476 869.898C725.019 854.81 726.561 839.721 728.104 824.626C733.233 774.706 738.354 724.783 743.468 674.856L760.198 511.725L767.869 436.963C768.251 433.255 769.816 429.769 772.333 427.021C774.85 424.273 778.185 422.408 781.844 421.702C796.271 418.891 810.063 414.089 820.325 403.109C836.661 385.628 839.912 362.836 834.139 339.859ZM291.421 355.987C291.641 355.883 291.236 357.768 291.062 358.648C291.028 357.317 291.097 356.137 291.421 355.987ZM292.821 366.816C292.937 366.735 293.284 367.198 293.642 367.753C293.099 367.244 292.752 366.862 292.809 366.816H292.821ZM294.198 368.632C294.695 369.477 294.961 370.009 294.198 368.632V368.632ZM296.963 370.877H297.032C297.032 370.958 297.159 371.039 297.206 371.12C297.129 371.031 297.044 370.949 296.951 370.877H296.963ZM781.173 367.521C775.991 372.45 768.181 374.741 760.464 375.887C673.923 388.729 586.122 395.231 498.632 392.362C436.018 390.222 374.063 383.268 312.073 374.51C305.999 373.654 299.416 372.543 295.239 368.065C287.372 359.619 291.236 342.612 293.284 332.408C295.158 323.06 298.745 310.599 309.863 309.269C327.217 307.233 347.371 314.556 364.541 317.159C385.212 320.314 405.96 322.84 426.785 324.737C515.663 332.836 606.033 331.575 694.517 319.728C710.645 317.56 726.715 315.042 742.728 312.173C756.993 309.616 772.809 304.815 781.428 319.589C787.34 329.655 788.127 343.121 787.213 354.494C786.931 359.449 784.766 364.11 781.162 367.521H781.173Z" fill="#212121"/>
</svg>
