<svg viewBox="0 0 1080 1080" fill="none" xmlns="http://www.w3.org/2000/svg">
<path d="M647.217 360.287C611.324 333.094 566.589 316.961 518.086 316.961C399.876 316.961 304.047 412.79 304.047 531C304.047 649.21 399.876 745.039 518.086 745.039C636.296 745.039 732.125 649.21 732.125 531H552.58" stroke-width="88.4458" stroke-linecap="round" stroke-linejoin="round" stroke="currentColor"></path>
<path d="M744.507 223.198C681.14 176.506 602.835 148.914 518.086 148.914C307.066 148.914 136 319.98 136 531C136 742.02 307.066 913.086 518.086 913.086C602.835 913.086 681.14 885.494 744.507 838.802" stroke-width="88.4458" stroke-linecap="round" stroke-linejoin="round" stroke="currentColor"></path>
<path d="M806.419 370.029C835.559 422.41 852.158 482.727 852.158 546.92C852.158 611.114 835.559 671.43 806.419 723.812" stroke-width="88.4458" stroke-linecap="round" stroke="currentColor"></path>
<path d="M937.319 300.64C977.89 373.569 1001 457.546 1001 546.92C1001 636.295 977.89 720.271 937.319 793.2" stroke-width="88.4458" stroke-linecap="round" stroke="currentColor"></path>
</svg>