<svg width="1140" height="305" viewBox="0 0 1140 305" fill="none" xmlns="http://www.w3.org/2000/svg">
<path d="M0 305V73.2221L26.9165 64.7514C52.458 57.2348 100.266 41.8481 150.311 19.8308C197.864 4.50657 245.5 -8.0801 292.758 7.26853C326.262 17.5971 359.765 41.562 393.126 65.4248C421.411 85.6565 449.593 105.815 477.586 117.528C539.225 143.057 600.506 130.9 662.414 117.528C723.784 104.156 785.333 91.9992 847.242 104.52C874.338 110.289 901.576 121.149 928.821 132.013C963.013 145.647 997.218 159.286 1031.17 162.872C1049.42 164.917 1067.6 167.864 1084.98 170.679C1104.73 173.88 1123.43 176.911 1140 178.257V305H0Z" fill="#fff"/>
</svg>
