<svg width="1080" height="316" viewBox="0 0 1080 316" fill="none" xmlns="http://www.w3.org/2000/svg">
<g clip-path="url(#clip0)">
<path d="M-72 94.8796L-42.845 100.983C-13.69 107.548 44.45 119.065 103.1 137.837C161.155 155.918 219.55 181.255 277.35 162.483C336 144.401 394.65 82.2112 452.45 58.0262C510.845 33.8411 568.9 45.3578 627.55 58.0262C685.69 70.6945 744 82.2112 802.65 70.349C860.535 58.0262 919.1 21.1728 976.9 15.0689C1035.47 8.50443 1093.35 -7.86219 1123.1 4L1311 248.5L1152 316H1122.84C1093.69 316 1035.55 316 976.9 316C918.845 316 860.45 316 802.65 316C744 316 685.35 316 627.55 316C569.155 316 511.1 316 452.45 316C394.31 316 336 316 277.35 316C219.465 316 160.9 316 103.1 316C44.535 316 -13.35 316 -43.1 316H-72V94.8796Z" fill="url(#paint0_linear)"/>
</g>
<defs>
<linearGradient id="paint0_linear" x1="540" y1="316" x2="540" y2="14" gradientUnits="userSpaceOnUse">
<stop stop-color="#F99F41"/>
<stop offset="1" stop-color="#FBBF50"/>
</linearGradient>
<clipPath id="clip0">
<rect width="1080" height="316" fill="white" transform="matrix(1 0 0 -1 0 316)"/>
</clipPath>
</defs>
</svg>
