<svg width="1080" height="1080" viewBox="0 0 1080 1080" fill="none" xmlns="http://www.w3.org/2000/svg">
<g clip-path="url(#clip0)">
<path d="M-72 858.88L-42.845 864.983C-13.69 871.548 44.45 883.065 103.1 901.837C161.155 919.918 219.55 945.255 277.35 926.483C336 908.401 394.65 846.211 452.45 822.026C510.845 797.841 568.9 809.358 627.55 822.026C685.69 834.695 744 846.211 802.65 834.349C860.535 822.026 919.1 785.173 976.9 779.069C1035.47 772.504 1093.35 756.138 1123.1 768L1311 1012.5L1152 1080H1122.84C1093.69 1080 1035.55 1080 976.9 1080C918.845 1080 860.45 1080 802.65 1080C744 1080 685.35 1080 627.55 1080C569.155 1080 511.1 1080 452.45 1080C394.31 1080 336 1080 277.35 1080C219.465 1080 160.9 1080 103.1 1080C44.535 1080 -13.35 1080 -43.1 1080H-72V858.88Z" fill="url(#paint0_linear)"/>
</g>
<g clip-path="url(#clip1)">
<path d="M1080 984L1054.28 972C1028.55 960 977.25 936 925.5 944.025C874.275 951.75 822.75 992.25 771.75 996C720 999.75 668.25 968.25 617.25 948C565.725 927.75 514.5 920.25 462.75 932.025C411.45 944.25 360 975.75 308.25 975.975C257.175 975.75 205.5 944.25 154.5 920.025C102.825 896.25 51.75 879.75 25.5 872.025L0 864V1080H25.725C51.45 1080 102.75 1080 154.5 1080C205.725 1080 257.25 1080 308.25 1080C360 1080 411.75 1080 462.75 1080C514.275 1080 565.5 1080 617.25 1080C668.55 1080 720 1080 771.75 1080C822.825 1080 874.5 1080 925.5 1080C977.175 1080 1028.25 1080 1054.5 1080H1080V984Z" fill="url(#paint1_linear)"/>
</g>
<g clip-path="url(#clip2)">
<path d="M1209 1028.02L1188.3 969.648C1169.21 915.83 1075.94 911.306 1019.5 920V920C991.975 923.975 941.25 912 913.5 896.025C886.125 879.75 858.75 896.25 831 896.025C803.1 896.25 775.5 879.75 747.75 884.025C720 888 692.25 912 664.5 944.025C636.9 975.75 609 1016.25 581.25 1028.02C553.875 1040.25 526.5 1023.75 498.75 1023.98C470.775 1023.75 443.25 1040.25 415.5 1023.98C387.675 1008 360 960 332.25 960C304.65 960 276.75 1008 249 1032C221.55 1056 193.5 1056 166.5 1047.97C138.45 1040.25 111 1023.75 83.25 1020C55.35 1016.25 27.75 1023.75 13.5 1028.02L0 1032V1080H13.875C27.675 1080 55.5 1080 83.25 1080C110.775 1080 138.75 1080 166.5 1080C193.875 1080 221.25 1080 249 1080C276.9 1080 304.5 1080 332.25 1080C360 1080 387.75 1080 415.5 1080C443.1 1080 471 1080 498.75 1080C526.125 1080 553.5 1080 581.25 1080C609.225 1080 636.75 1080 664.5 1080C692.325 1080 720 1080 747.75 1080C775.35 1080 803.25 1080 831 1080C858.45 1080 886.5 1080 913.5 1080C941.55 1080 969 1080 996.75 1080C1024.65 1080 1052.25 1080 1066.5 1080H1080L1209 1028.02Z" fill="#0099FF"/>
<path d="M1209 1028.02L1188.3 969.648C1169.21 915.83 1075.94 911.306 1019.5 920V920C991.975 923.975 941.25 912 913.5 896.025C886.125 879.75 858.75 896.25 831 896.025C803.1 896.25 775.5 879.75 747.75 884.025C720 888 692.25 912 664.5 944.025C636.9 975.75 609 1016.25 581.25 1028.02C553.875 1040.25 526.5 1023.75 498.75 1023.98C470.775 1023.75 443.25 1040.25 415.5 1023.98C387.675 1008 360 960 332.25 960C304.65 960 276.75 1008 249 1032C221.55 1056 193.5 1056 166.5 1047.97C138.45 1040.25 111 1023.75 83.25 1020C55.35 1016.25 27.75 1023.75 13.5 1028.02L0 1032V1080H13.875C27.675 1080 55.5 1080 83.25 1080C110.775 1080 138.75 1080 166.5 1080C193.875 1080 221.25 1080 249 1080C276.9 1080 304.5 1080 332.25 1080C360 1080 387.75 1080 415.5 1080C443.1 1080 471 1080 498.75 1080C526.125 1080 553.5 1080 581.25 1080C609.225 1080 636.75 1080 664.5 1080C692.325 1080 720 1080 747.75 1080C775.35 1080 803.25 1080 831 1080C858.45 1080 886.5 1080 913.5 1080C941.55 1080 969 1080 996.75 1080C1024.65 1080 1052.25 1080 1066.5 1080H1080L1209 1028.02Z" fill="url(#paint2_linear)"/>
</g>
<defs>
<linearGradient id="paint0_linear" x1="540" y1="1080" x2="540" y2="778" gradientUnits="userSpaceOnUse">
<stop stop-color="#F99F41"/>
<stop offset="1" stop-color="#FBBF50"/>
</linearGradient>
<linearGradient id="paint1_linear" x1="1080" y1="1080" x2="-4.11326" y2="886.828" gradientUnits="userSpaceOnUse">
<stop stop-color="#0072B2"/>
<stop offset="1" stop-color="#87BEDD"/>
</linearGradient>
<linearGradient id="paint2_linear" x1="1080" y1="1080" x2="-7.95077" y2="884.168" gradientUnits="userSpaceOnUse">
<stop stop-color="#FF0890"/>
<stop offset="1" stop-color="#FF4D00"/>
</linearGradient>
<clipPath id="clip0">
<rect width="1080" height="316" fill="white" transform="matrix(1 0 0 -1 0 1080)"/>
</clipPath>
<clipPath id="clip1">
<rect width="1080" height="316" fill="white" transform="matrix(1 0 0 -1 0 1080)"/>
</clipPath>
<clipPath id="clip2">
<rect width="1080" height="316" fill="white" transform="matrix(1 0 0 -1 0 1080)"/>
</clipPath>
</defs>
</svg>
