<svg width="1080" height="316" viewBox="0 0 1080 316" fill="none" xmlns="http://www.w3.org/2000/svg">
<g clip-path="url(#clip0)">
<path d="M1080 220L1054.28 208C1028.55 196 977.25 172 925.5 180.025C874.275 187.75 822.75 228.25 771.75 232C720 235.75 668.25 204.25 617.25 184C565.725 163.75 514.5 156.25 462.75 168.025C411.45 180.25 360 211.75 308.25 211.975C257.175 211.75 205.5 180.25 154.5 156.025C102.825 132.25 51.75 115.75 25.5 108.025L0 100V316H25.7251C51.4501 316 102.75 316 154.5 316C205.725 316 257.25 316 308.25 316C360 316 411.75 316 462.75 316C514.275 316 565.5 316 617.25 316C668.55 316 720 316 771.75 316C822.825 316 874.5 316 925.5 316C977.175 316 1028.25 316 1054.5 316H1080V220Z" fill="url(#paint0_linear)"/>
</g>
<defs>
<linearGradient id="paint0_linear" x1="1080" y1="316" x2="-4.11326" y2="122.828" gradientUnits="userSpaceOnUse">
<stop stop-color="#0072B2"/>
<stop offset="1" stop-color="#87BEDD"/>
</linearGradient>
<clipPath id="clip0">
<rect width="1080" height="316" fill="white" transform="matrix(1 0 0 -1 0 316)"/>
</clipPath>
</defs>
</svg>
