<svg width="1080" height="316" viewBox="0 0 1080 316" fill="none" xmlns="http://www.w3.org/2000/svg">
<g clip-path="url(#clip0)">
<path d="M-72 221.12L-42.845 215.017C-13.69 208.452 44.45 196.935 103.1 178.163C161.155 160.082 219.55 134.745 277.35 153.517C336 171.599 394.65 233.789 452.45 257.974C510.845 282.159 568.9 270.642 627.55 257.974C685.69 245.305 744 233.789 802.65 245.651C860.535 257.974 919.1 294.827 976.9 300.931C1035.47 307.496 1093.35 323.862 1123.1 312L1311 67.5L1152 0L1122.84 0C1093.69 0 1035.55 0 976.9 0C918.845 0 860.45 0 802.65 0C744 0 685.35 0 627.55 0C569.155 0 511.1 0 452.45 0C394.31 0 336 0 277.35 0C219.465 0 160.9 0 103.1 0C44.535 0 -13.35 0 -43.1 0L-72 0V221.12Z" fill="url(#paint0_linear)"/>
</g>
<g clip-path="url(#clip1)">
<path d="M1080 96L1054.28 108C1028.55 120 977.25 144 925.5 135.975C874.275 128.25 822.75 87.75 771.75 84C720 80.25 668.25 111.75 617.25 132C565.725 152.25 514.5 159.75 462.75 147.975C411.45 135.75 360 104.25 308.25 104.025C257.175 104.25 205.5 135.75 154.5 159.975C102.825 183.75 51.75 200.25 25.5 207.975L0 216V0L25.725 0C51.45 0 102.75 0 154.5 0C205.725 0 257.25 0 308.25 0C360 0 411.75 0 462.75 0C514.275 0 565.5 0 617.25 0C668.55 0 720 0 771.75 0C822.825 0 874.5 0 925.5 0C977.175 0 1028.25 0 1054.5 0L1080 0V96Z" fill="url(#paint1_linear)"/>
</g>
<g clip-path="url(#clip2)">
<path d="M1209 51.975L1188.3 110.352C1169.21 164.17 1075.94 168.694 1019.5 160V160C991.975 156.025 941.25 168 913.5 183.975C886.125 200.25 858.75 183.75 831 183.975C803.1 183.75 775.5 200.25 747.75 195.975C720 192 692.25 168 664.5 135.975C636.9 104.25 609 63.75 581.25 51.975C553.875 39.75 526.5 56.25 498.75 56.025C470.775 56.25 443.25 39.75 415.5 56.025C387.675 72 360 120 332.25 120C304.65 120 276.75 72 249 48C221.55 24 193.5 24 166.5 32.025C138.45 39.75 111 56.25 83.25 60C55.35 63.75 27.75 56.25 13.5 51.975L0 48V0H13.875C27.675 0 55.5 0 83.25 0C110.775 0 138.75 0 166.5 0C193.875 0 221.25 0 249 0C276.9 0 304.5 0 332.25 0C360 0 387.75 0 415.5 0C443.1 0 471 0 498.75 0C526.125 0 553.5 0 581.25 0C609.225 0 636.75 0 664.5 0C692.325 0 720 0 747.75 0C775.35 0 803.25 0 831 0C858.45 0 886.5 0 913.5 0C941.55 0 969 0 996.75 0C1024.65 0 1052.25 0 1066.5 0H1080L1209 51.975Z" fill="#0099FF"/>
<path d="M1209 51.975L1188.3 110.352C1169.21 164.17 1075.94 168.694 1019.5 160V160C991.975 156.025 941.25 168 913.5 183.975C886.125 200.25 858.75 183.75 831 183.975C803.1 183.75 775.5 200.25 747.75 195.975C720 192 692.25 168 664.5 135.975C636.9 104.25 609 63.75 581.25 51.975C553.875 39.75 526.5 56.25 498.75 56.025C470.775 56.25 443.25 39.75 415.5 56.025C387.675 72 360 120 332.25 120C304.65 120 276.75 72 249 48C221.55 24 193.5 24 166.5 32.025C138.45 39.75 111 56.25 83.25 60C55.35 63.75 27.75 56.25 13.5 51.975L0 48V0H13.875C27.675 0 55.5 0 83.25 0C110.775 0 138.75 0 166.5 0C193.875 0 221.25 0 249 0C276.9 0 304.5 0 332.25 0C360 0 387.75 0 415.5 0C443.1 0 471 0 498.75 0C526.125 0 553.5 0 581.25 0C609.225 0 636.75 0 664.5 0C692.325 0 720 0 747.75 0C775.35 0 803.25 0 831 0C858.45 0 886.5 0 913.5 0C941.55 0 969 0 996.75 0C1024.65 0 1052.25 0 1066.5 0H1080L1209 51.975Z" fill="url(#paint2_linear)"/>
</g>
<defs>
<linearGradient id="paint0_linear" x1="540" y1="0" x2="540" y2="302" gradientUnits="userSpaceOnUse">
<stop stop-color="#F99F41"/>
<stop offset="1" stop-color="#FBBF50"/>
</linearGradient>
<linearGradient id="paint1_linear" x1="1080" y1="0" x2="-4.11326" y2="193.172" gradientUnits="userSpaceOnUse">
<stop stop-color="#0072B2"/>
<stop offset="1" stop-color="#87BEDD"/>
</linearGradient>
<linearGradient id="paint2_linear" x1="1080" y1="0.000307493" x2="-7.95077" y2="195.832" gradientUnits="userSpaceOnUse">
<stop stop-color="#FF0890"/>
<stop offset="1" stop-color="#FF4D00"/>
</linearGradient>
<clipPath id="clip0">
<rect width="1080" height="316" fill="white"/>
</clipPath>
<clipPath id="clip1">
<rect width="1080" height="316" fill="white"/>
</clipPath>
<clipPath id="clip2">
<rect width="1080" height="316" fill="white"/>
</clipPath>
</defs>
</svg>
