<svg width="1080" height="316" viewBox="0 0 1080 316" fill="none" xmlns="http://www.w3.org/2000/svg">
<g clip-path="url(#clip0)">
<path d="M1209 264.025L1188.3 205.648C1169.21 151.83 1075.94 147.306 1019.5 156V156C991.975 159.975 941.25 148 913.5 132.025C886.125 115.75 858.75 132.25 831 132.025C803.1 132.25 775.5 115.75 747.75 120.025C720 124 692.25 148 664.5 180.025C636.9 211.75 609 252.25 581.25 264.025C553.875 276.25 526.5 259.75 498.75 259.975C470.775 259.75 443.25 276.25 415.5 259.975C387.675 244 360 196 332.25 196C304.65 196 276.75 244 249 268C221.55 292 193.5 292 166.5 283.975C138.45 276.25 111 259.75 83.25 256C55.35 252.25 27.75 259.75 13.5 264.025L0 268V316H13.875C27.675 316 55.5 316 83.25 316C110.775 316 138.75 316 166.5 316C193.875 316 221.25 316 249 316C276.9 316 304.5 316 332.25 316C360 316 387.75 316 415.5 316C443.1 316 471 316 498.75 316C526.125 316 553.5 316 581.25 316C609.225 316 636.75 316 664.5 316C692.325 316 720 316 747.75 316C775.35 316 803.25 316 831 316C858.45 316 886.5 316 913.5 316C941.55 316 969 316 996.75 316C1024.65 316 1052.25 316 1066.5 316H1080L1209 264.025Z" fill="#0099FF"/>
<path d="M1209 264.025L1188.3 205.648C1169.21 151.83 1075.94 147.306 1019.5 156V156C991.975 159.975 941.25 148 913.5 132.025C886.125 115.75 858.75 132.25 831 132.025C803.1 132.25 775.5 115.75 747.75 120.025C720 124 692.25 148 664.5 180.025C636.9 211.75 609 252.25 581.25 264.025C553.875 276.25 526.5 259.75 498.75 259.975C470.775 259.75 443.25 276.25 415.5 259.975C387.675 244 360 196 332.25 196C304.65 196 276.75 244 249 268C221.55 292 193.5 292 166.5 283.975C138.45 276.25 111 259.75 83.25 256C55.35 252.25 27.75 259.75 13.5 264.025L0 268V316H13.875C27.675 316 55.5 316 83.25 316C110.775 316 138.75 316 166.5 316C193.875 316 221.25 316 249 316C276.9 316 304.5 316 332.25 316C360 316 387.75 316 415.5 316C443.1 316 471 316 498.75 316C526.125 316 553.5 316 581.25 316C609.225 316 636.75 316 664.5 316C692.325 316 720 316 747.75 316C775.35 316 803.25 316 831 316C858.45 316 886.5 316 913.5 316C941.55 316 969 316 996.75 316C1024.65 316 1052.25 316 1066.5 316H1080L1209 264.025Z" fill="url(#paint0_linear)"/>
</g>
<defs>
<linearGradient id="paint0_linear" x1="1080" y1="316" x2="-7.95077" y2="120.168" gradientUnits="userSpaceOnUse">
<stop stop-color="#FF0890"/>
<stop offset="1" stop-color="#FF4D00"/>
</linearGradient>
<clipPath id="clip0">
<rect width="1080" height="316" fill="white" transform="matrix(1 0 0 -1 0 316)"/>
</clipPath>
</defs>
</svg>
